<?xml version="1.0" standalone="no"?>
<!DOCTYPE svg PUBLIC "-//W3C//DTD SVG 20010904//EN"
 "http://www.w3.org/TR/2001/REC-SVG-20010904/DTD/svg10.dtd">
<svg version="1.0" xmlns="http://www.w3.org/2000/svg"
 width="260.000000pt" height="260.000000pt" viewBox="0 0 260.000000 260.000000"
 preserveAspectRatio="xMidYMid meet">
<metadata>
Created by potrace 1.11, written by Peter Selinger 2001-2013
</metadata>
<g transform="translate(0.000000,260.000000) scale(0.100000,-0.100000)"
fill="#000000" stroke="none">
<path d="M1137 2031 l-89 -260 -66 -22 c-37 -12 -89 -33 -116 -46 -42 -21 -53
-23 -75 -13 -39 18 -156 38 -188 32 -78 -13 -92 -78 -39 -181 l33 -65 -36 -67
-36 -66 -75 -25 -75 -24 -3 -145 c-3 -165 8 -209 63 -257 18 -17 55 -37 82
-46 40 -13 56 -27 93 -77 43 -59 132 -141 190 -175 18 -11 55 -64 105 -151 58
-101 81 -133 93 -128 8 3 52 15 98 26 101 26 141 49 160 94 8 19 18 35 23 35
5 0 16 2 23 5 10 4 30 -22 62 -80 36 -64 52 -84 65 -81 9 3 52 15 96 27 103
27 131 43 155 82 26 41 25 78 -1 129 l-21 42 28 19 c16 11 61 52 100 92 83 82
145 198 165 305 6 36 13 71 15 78 2 8 26 12 72 12 71 0 98 15 115 62 5 13 17
18 47 18 36 0 40 2 40 25 0 23 -4 25 -40 25 -35 0 -40 3 -40 23 0 34 -35 84
-65 91 -34 9 -92 -10 -105 -34 -6 -10 -10 -35 -10 -54 0 -49 28 -76 81 -76 24
0 38 -4 34 -10 -3 -5 -35 -10 -71 -10 l-64 0 0 33 c0 91 -63 235 -144 330 -33
39 -53 72 -50 81 3 8 1 29 -4 48 -7 25 -5 42 9 73 40 88 14 206 -57 263 -25
20 -34 35 -34 57 0 116 -98 219 -227 240 -39 6 -41 5 -47 -23 l-7 -29 -47 23
c-26 12 -65 25 -87 29 l-40 6 -88 -260z"/>
</g>
</svg>
